<?xml version="1.0" encoding="utf-8"?>
<!-- Generator: Adobe Illustrator 16.0.0, SVG Export Plug-In . SVG Version: 6.00 Build 0)  -->
<!DOCTYPE svg PUBLIC "-//W3C//DTD SVG 1.1//EN" "http://www.w3.org/Graphics/SVG/1.1/DTD/svg11.dtd">
<svg version="1.1" id="Layer_1" xmlns="http://www.w3.org/2000/svg" xmlns:xlink="http://www.w3.org/1999/xlink" x="0px" y="0px"
	 width="107px" height="111px" viewBox="0 0 107 111" enable-background="new 0 0 107 111" xml:space="preserve">
<g>
	<path fill="#640018" d="M6.572,82.239c1.799,1.244,3.411,2.16,4.834,2.749c1.423,0.588,2.74,0.883,3.951,0.883
		c0.883,0,1.571-0.163,2.062-0.491c0.491-0.327,0.736-0.769,0.736-1.325c0-0.981-1.244-1.734-3.729-2.258
		c-0.393-0.065-0.745-0.13-1.056-0.196c-0.311-0.066-0.581-0.13-0.81-0.197c-2.65-0.621-4.663-1.742-6.037-3.361
		c-1.374-1.62-2.061-3.657-2.061-6.11c0-3.763,1.341-6.822,4.024-9.178c2.683-2.388,6.233-3.583,10.65-3.583
		c4.024,0,7.967,1.063,11.828,3.19l-3.828,9.177c-1.211-0.883-2.43-1.562-3.657-2.037c-1.227-0.474-2.413-0.711-3.558-0.711
		c-1.833,0-2.749,0.557-2.749,1.669c0,0.981,1.75,1.848,5.251,2.601c0.523,0.131,0.949,0.229,1.276,0.294
		c2.454,0.557,4.368,1.668,5.742,3.337c1.375,1.668,2.062,3.698,2.062,6.086c0,3.894-1.407,7.067-4.221,9.521
		c-2.814,2.454-6.462,3.681-10.944,3.681c-4.614,0-9.211-1.309-13.792-3.927L6.572,82.239z"/>
</g>
<g>
	<path fill="#640018" d="M33.673,59.261h17.57c3.802,0,6.747,0.874,8.836,2.62c2.089,1.747,3.134,4.212,3.134,7.397
		c0,2.055-0.488,3.734-1.464,5.035c-0.976,1.302-2.389,2.158-4.238,2.568c4.932,1.028,7.398,3.939,7.398,8.734
		c0,3.425-1.148,6.011-3.442,7.757c-2.295,1.747-5.72,2.62-10.275,2.62H33.673V59.261z M46.054,73.132h1.747
		c2.191,0,3.288-0.855,3.288-2.569c0-1.712-1.096-2.569-3.288-2.569h-1.747V73.132z M46.054,86.9h2.209
		c1.335,0,2.354-0.256,3.057-0.771c0.702-0.514,1.053-1.233,1.053-2.158c0-1.952-1.371-2.928-4.11-2.928h-2.209V86.9z"/>
</g>
<g>
	<g>
		<path fill="#640018" d="M77.087,59.261H91.78l12.844,36.732h-14.18l-1.181-4.624h-9.967l-1.13,4.624H63.987L77.087,59.261z
			 M87.002,82.636l-1.13-4.162c-0.274-1.028-0.506-1.934-0.693-2.723c-0.189-0.787-0.334-1.489-0.437-2.106
			c-0.103-0.617-0.188-1.182-0.257-1.695c-0.069-0.514-0.394-0.514-0.462,0c-0.069,0.514-0.154,1.079-0.256,1.695
			c-0.103,0.617-0.249,1.319-0.438,2.106c-0.188,0.789-0.419,1.695-0.693,2.723l-1.13,4.162H87.002z"/>
	</g>
</g>
<g>
	<path fill="#051535" d="M7.774,102.165c-0.526,0-0.95,0.163-1.271,0.489c-0.322,0.325-0.482,0.755-0.482,1.289
		c0,0.526,0.15,0.945,0.451,1.259c0.301,0.313,0.714,0.47,1.24,0.47c0.592,0,1.256-0.275,1.991-0.826l-0.1,3.369
		c-0.693,0.283-1.395,0.425-2.104,0.425c-0.434,0-0.854-0.048-1.258-0.144c-0.405-0.096-0.771-0.236-1.096-0.42
		c-0.802-0.459-1.403-1.035-1.804-1.729c-0.4-0.692-0.601-1.494-0.601-2.404c0-0.676,0.113-1.298,0.338-1.865
		c0.226-0.567,0.563-1.068,1.014-1.503c0.451-0.451,0.966-0.787,1.547-1.008c0.58-0.221,1.212-0.332,1.897-0.332
		c0.735,0,1.436,0.15,2.104,0.451v3.318C9.056,102.445,8.434,102.165,7.774,102.165z"/>
	<path fill="#051535" d="M19.965,105.772c-0.23,0.559-0.57,1.064-1.021,1.515c-0.451,0.435-0.969,0.769-1.553,1.002
		s-1.207,0.351-1.866,0.351c-0.676,0-1.305-0.115-1.885-0.344c-0.581-0.229-1.096-0.57-1.546-1.021
		c-0.902-0.876-1.353-1.986-1.353-3.331c0-1.353,0.451-2.467,1.353-3.343c0.918-0.901,2.062-1.353,3.431-1.353
		c0.676,0,1.304,0.113,1.885,0.338c0.58,0.225,1.096,0.563,1.546,1.014c0.451,0.434,0.789,0.935,1.015,1.502
		c0.225,0.568,0.338,1.182,0.338,1.841C20.31,104.604,20.195,105.213,19.965,105.772z M16.615,105.171
		c0.275-0.309,0.413-0.718,0.413-1.228c0-0.509-0.138-0.92-0.413-1.232c-0.275-0.313-0.639-0.47-1.089-0.47
		c-0.451,0-0.816,0.156-1.096,0.47c-0.28,0.312-0.42,0.724-0.42,1.232c0,0.51,0.14,0.919,0.42,1.228s0.645,0.463,1.096,0.463
		C15.977,105.634,16.34,105.479,16.615,105.171z"/>
	<path fill="#051535" d="M21.662,99.448h3.155l2.78,4.683c-0.033-0.208-0.059-0.438-0.075-0.688
		c-0.017-0.251-0.025-0.581-0.025-0.989v-3.006h3.106v8.954h-3.181l-2.755-4.646c0.033,0.2,0.058,0.416,0.075,0.645
		c0.017,0.229,0.025,0.486,0.025,0.771v3.231h-3.105V99.448z"/>
	<path fill="#051535" d="M32.457,105.133c0.459,0.317,0.87,0.552,1.233,0.702s0.699,0.225,1.008,0.225
		c0.225,0,0.401-0.041,0.526-0.125c0.125-0.083,0.188-0.195,0.188-0.338c0-0.251-0.318-0.442-0.952-0.576
		c-0.1-0.017-0.19-0.033-0.269-0.05s-0.148-0.033-0.207-0.051c-0.676-0.158-1.19-0.444-1.541-0.857s-0.526-0.933-0.526-1.56
		c0-0.96,0.342-1.74,1.027-2.341c0.685-0.609,1.59-0.914,2.718-0.914c1.026,0,2.032,0.271,3.018,0.814l-0.977,2.342
		c-0.309-0.226-0.62-0.398-0.933-0.52s-0.616-0.182-0.908-0.182c-0.468,0-0.701,0.142-0.701,0.426c0,0.251,0.446,0.472,1.339,0.663
		c0.134,0.034,0.243,0.059,0.326,0.076c0.626,0.142,1.114,0.425,1.465,0.851c0.351,0.427,0.526,0.943,0.526,1.554
		c0,0.993-0.359,1.803-1.077,2.43c-0.718,0.626-1.649,0.938-2.792,0.938c-1.177,0-2.35-0.334-3.519-1.002L32.457,105.133z"/>
	<path fill="#051535" d="M41.047,102.379h-1.791v-2.931h6.8v2.931h-1.791v6.023h-3.219V102.379z"/>
	<path fill="#051535" d="M46.757,99.448h4.045c1.186,0,2.085,0.256,2.699,0.77c0.614,0.513,0.921,1.263,0.921,2.248
		c0,0.635-0.155,1.158-0.464,1.571c-0.309,0.414-0.73,0.653-1.265,0.721l2.392,3.645h-3.607l-1.565-2.956v2.956h-3.156V99.448z
		 M49.914,103.505h0.5c0.309,0,0.545-0.075,0.708-0.225c0.163-0.15,0.244-0.363,0.244-0.639c0-0.284-0.081-0.503-0.244-0.657
		c-0.163-0.155-0.399-0.232-0.708-0.232h-0.5V103.505z"/>
	<path fill="#051535" d="M55.974,99.448h3.219v4.884c0,0.567,0.066,0.958,0.2,1.171c0.133,0.213,0.363,0.319,0.689,0.319
		c0.325,0,0.557-0.11,0.695-0.332c0.138-0.221,0.207-0.607,0.207-1.158v-4.884h3.218v4.858c0,0.635-0.042,1.158-0.125,1.571
		c-0.083,0.414-0.217,0.758-0.4,1.034c-0.359,0.56-0.848,0.987-1.465,1.283c-0.618,0.296-1.328,0.444-2.129,0.444
		c-0.802,0-1.512-0.148-2.129-0.444c-0.618-0.296-1.106-0.724-1.465-1.283c-0.175-0.276-0.305-0.616-0.388-1.021
		c-0.083-0.404-0.125-0.933-0.125-1.584V99.448z"/>
	<path fill="#051535" d="M70.588,102.165c-0.526,0-0.95,0.163-1.271,0.489c-0.322,0.325-0.482,0.755-0.482,1.289
		c0,0.526,0.15,0.945,0.451,1.259s0.714,0.47,1.24,0.47c0.592,0,1.256-0.275,1.991-0.826l-0.1,3.369
		c-0.693,0.283-1.395,0.425-2.104,0.425c-0.434,0-0.854-0.048-1.259-0.144c-0.405-0.096-0.77-0.236-1.096-0.42
		c-0.801-0.459-1.402-1.035-1.803-1.729c-0.401-0.692-0.602-1.494-0.602-2.404c0-0.676,0.112-1.298,0.338-1.865
		c0.226-0.567,0.563-1.068,1.014-1.503c0.451-0.451,0.966-0.787,1.546-1.008s1.213-0.332,1.897-0.332
		c0.735,0,1.436,0.15,2.104,0.451v3.318C71.87,102.445,71.248,102.165,70.588,102.165z"/>
	<path fill="#051535" d="M75.021,102.379h-1.791v-2.931h6.8v2.931H78.24v6.023h-3.219V102.379z"/>
	<path fill="#051535" d="M80.657,99.448h3.269v8.954h-3.269V99.448z"/>
	<path fill="#051535" d="M94.05,105.772c-0.229,0.559-0.57,1.064-1.021,1.515c-0.451,0.435-0.969,0.769-1.553,1.002
		c-0.584,0.233-1.207,0.351-1.866,0.351c-0.677,0-1.305-0.115-1.885-0.344c-0.581-0.229-1.096-0.57-1.547-1.021
		c-0.901-0.876-1.352-1.986-1.352-3.331c0-1.353,0.451-2.467,1.352-3.343c0.918-0.901,2.062-1.353,3.432-1.353
		c0.676,0,1.304,0.113,1.885,0.338c0.58,0.225,1.096,0.563,1.546,1.014c0.451,0.434,0.789,0.935,1.014,1.502
		c0.226,0.568,0.338,1.182,0.338,1.841C94.394,104.604,94.279,105.213,94.05,105.772z M90.7,105.171
		c0.275-0.309,0.413-0.718,0.413-1.228c0-0.509-0.138-0.92-0.413-1.232c-0.276-0.313-0.639-0.47-1.089-0.47s-0.816,0.156-1.096,0.47
		c-0.28,0.312-0.419,0.724-0.419,1.232c0,0.51,0.14,0.919,0.419,1.228s0.646,0.463,1.096,0.463S90.424,105.479,90.7,105.171z"/>
	<path fill="#051535" d="M95.747,99.448h3.155l2.78,4.683c-0.034-0.208-0.059-0.438-0.075-0.688
		c-0.017-0.251-0.024-0.581-0.024-0.989v-3.006h3.104v8.954h-3.181l-2.755-4.646c0.034,0.2,0.059,0.416,0.076,0.645
		c0.017,0.229,0.025,0.486,0.025,0.771v3.231h-3.105V99.448z"/>
</g>
<g>
	<g>
		<polygon fill="#051535" points="4.687,57 20.478,32 55.894,32 71.635,57 29.922,57 21.133,36.244 8.471,57 		"/>
	</g>
	<path fill="#051535" d="M101.1,1h-43.72l0.049,2.706L52,12.615V30h4.681l17.315,26H100V4h1.148L101.1,1z M77,27H65v-3h12V27z
		 M77,19H65v-3h12V19z M77,11H65V8h12V11z M95,27H84v-3h11V27z M95,19H84v-3h11V19z M95,11H84V8h11V11z"/>
</g>
</svg>
