<?xml version="1.0" encoding="utf-8"?>
<!-- Generator: Adobe Illustrator 16.0.0, SVG Export Plug-In . SVG Version: 6.00 Build 0)  -->
<!DOCTYPE svg PUBLIC "-//W3C//DTD SVG 1.1//EN" "http://www.w3.org/Graphics/SVG/1.1/DTD/svg11.dtd">
<svg version="1.1" xmlns="http://www.w3.org/2000/svg" xmlns:xlink="http://www.w3.org/1999/xlink" x="0px" y="0px" width="150px"
	 height="150px" viewBox="0 0 150 150" enable-background="new 0 0 150 150" xml:space="preserve">
<symbol  id="Music" viewBox="-30.953 -30.311 61.905 60.62">
	<path d="M30.874-15.991h0.057v46.146l0.021,0.154l-0.021-0.003v0.003l-0.048-0.009l-44.898-6.012h-0.003v-36.461
		c-1.777,0.568-3.777,0.798-5.862,0.595c-6.597-0.641-11.538-5.337-11.038-10.489c0.501-5.152,6.253-8.812,12.849-8.172
		c6.598,0.642,11.539,5.337,11.038,10.49c-0.009,0.087-0.03,0.171-0.042,0.258h0.057v31.628l30.947,4.521V-8.671
		c-1.777,0.568-3.776,0.798-5.862,0.595c-6.598-0.642-11.54-5.338-11.04-10.49c0.501-5.152,6.253-8.812,12.849-8.172
		c6.598,0.642,11.539,5.337,11.038,10.49C30.907-16.161,30.886-16.078,30.874-15.991z"/>
</symbol>
<g id="Layer_1">
	
		<use xlink:href="#Music"  width="61.905" height="60.62" x="-30.953" y="-30.311" transform="matrix(1.9342 0 0 -1.9342 75.0005 75)" display="none" overflow="visible"/>
</g>
<g id="Layer_2">
	<g display="none">
		<path display="inline" fill="#1D1D1B" d="M50.21,41.195l-4.508-4.508c-1.232-1.232-3.262-1.232-4.507,0
			c-1.233,1.245-1.233,3.275,0,4.508l4.507,4.507c1.245,1.245,3.275,1.245,4.508,0C51.455,44.47,51.455,42.44,50.21,41.195z"/>
		<path display="inline" fill="#1D1D1B" d="M33.575,68.625H27.2c-1.75,0-3.188,1.432-3.188,3.188S25.451,75,27.2,75h6.375
			c1.755,0,3.188-1.432,3.188-3.188S35.331,68.625,33.575,68.625z"/>
		<path display="inline" fill="#1D1D1B" d="M122.8,74.987h-6.375c-1.749,0-3.188,1.433-3.188,3.188c0,1.756,1.438,3.188,3.188,3.188
			h6.375c1.756,0,3.188-1.432,3.188-3.188C125.987,76.42,124.556,74.987,122.8,74.987z"/>
		<path display="inline" fill="#1D1D1B" d="M113.3,41.195c-1.232-1.233-3.263-1.233-4.507,0l-4.508,4.507
			c-1.232,1.245-1.232,3.275,0,4.508c1.245,1.245,3.274,1.245,4.508,0l4.507-4.508C114.545,44.47,114.545,42.44,113.3,41.195z"/>
		<path display="inline" fill="#1D1D1B" d="M78.188,36.763c0.871,0,1.668-0.361,2.254-0.946c0.572-0.573,0.934-1.37,0.934-2.254
			v-6.375c0-1.756-1.432-3.188-3.188-3.188c-1.313,0-2.453,0.81-2.932,1.955L75,27.2v6.375C75,35.331,76.432,36.763,78.188,36.763z"
			/>
		<path display="inline" fill="#1D1D1B" d="M74.987,49.5c-14.082,0-25.5,11.418-25.5,25.5c0,9.413,5.167,17.544,12.75,21.964v9.911
			h25.5v-9.911c7.596-4.42,12.75-12.551,12.75-21.964C100.487,60.918,89.07,49.5,74.987,49.5z M84.531,91.461l-3.169,1.842v3.661
			v3.536h-12.75v-3.536v-3.661l-3.162-1.842c-6.002-3.499-9.588-9.65-9.588-16.461c0-10.546,8.579-19.125,19.125-19.125
			S94.112,64.454,94.112,75C94.112,81.811,90.533,87.962,84.531,91.461z"/>
		<path display="inline" fill="#1D1D1B" d="M62.237,119.625h6.562l-0.187,0.797c0,3.075,2.876,5.578,6.375,5.578
			c3.512,0,6.375-2.503,6.375-5.578l-0.187-0.797h6.562v-6.375h-25.5V119.625z"/>
	</g>
</g>
<g id="Layer_3" display="none">
	<path display="inline" fill="#1D1D1B" d="M124.823,24.236c-2.246-2.246-4.979,0.486-4.979,0.486s-13.665,13.669-16.397,16.401
		c-2.732,2.733-10.53,5.871-10.53,5.871l8.974,8.974c0,0,3.31-7.62,6.046-10.358c2.729-2.732,16.394-16.398,16.394-16.398
		S127.066,26.479,124.823,24.236z"/>
	<g display="inline">
		<path fill="#1D1D1B" d="M95.596,67.976c-1.882,2.265-4.754,4.331-9.152,5.353c0.148,0.621,0.235,1.265,0.235,1.931
			c0,4.591-3.736,8.328-8.328,8.328c-4.591,0-8.328-3.736-8.328-8.328c0-4.592,3.737-8.328,8.328-8.328
			c0.161,0,0.318,0.015,0.478,0.024c1.031-2.671,1.902-6.135,3.645-10.422c-4.259-1.694-9.516-2.689-16.019-2.689
			c-28.553,0-42.829,28.553-42.829,47.588c0,4.759,9.518,14.276,14.276,0c2.128-6.386,14.276-4.759,14.276,4.759
			c0,10.642,4.759,19.035,14.276,19.035c28.553,0,33.312-23.794,33.312-38.07C99.766,81.011,98.877,73.987,95.596,67.976z
			 M42.66,88.346c-3.281,0-5.949-2.667-5.949-5.948s2.667-5.948,5.949-5.948s5.948,2.667,5.948,5.948S45.941,88.346,42.66,88.346z
			 M53.367,70.5c0-3.281,2.667-5.948,5.949-5.948s5.948,2.667,5.948,5.948s-2.667,5.949-5.948,5.949S53.367,73.782,53.367,70.5z
			 M68.833,112.14c-4.591,0-8.328-3.736-8.328-8.327c0-4.592,3.737-8.328,8.328-8.328s8.328,3.736,8.328,8.328
			C77.161,108.403,73.425,112.14,68.833,112.14z M83.109,97.863c-1.97,0-3.568-1.599-3.568-3.568c0-1.971,1.599-3.569,3.568-3.569
			c1.971,0,3.569,1.599,3.569,3.569C86.679,96.265,85.08,97.863,83.109,97.863z"/>
		<path fill="#1D1D1B" d="M89.415,60.524c-1.044-0.841-2.197-1.616-3.45-2.325c-1.681,3.059-3.136,6.803-4.344,9.403
			c0.462,0.198,0.901,0.438,1.316,0.713C86.051,65.855,88.21,63.048,89.415,60.524z"/>
		<path fill="#1D1D1B" d="M89.509,53.644c1.449,0.968,1.429,3.694-0.094,6.88c2.665,2.147,4.674,4.693,6.181,7.452
			c3.557-4.283,3.565-9.275,3.565-9.275l-8.978-8.978c0,0-5.447,1.371-7.484,6.245c-0.081,0.194-0.148,0.375-0.227,0.566
			c1.249,0.497,2.41,1.055,3.492,1.666C87.055,56.215,88.238,54.524,89.509,53.644z"/>
		<path fill="#1D1D1B" d="M82.938,68.315c-0.873,0.689-1.808,1.356-2.832,1.976c0.449-0.521,0.958-1.488,1.516-2.688
			c-0.865-0.371-1.808-0.59-2.793-0.646c-1.271,3.29-2.802,5.385-6.578,6.317c5.952,1.034,10.583,0.895,14.193,0.055
			C85.946,71.247,84.672,69.465,82.938,68.315z"/>
	</g>
</g>
<g id="Layer_4" display="none">
	<g display="inline">
		<path fill="#1D1D1B" d="M88.854,44.303c-3.146,1.049-7.64,3.829-9.984,6.173L66.077,63.269c-1.172,1.172-1.172,3.092,0,4.265
			l6.397,6.396c1.172,1.173,3.092,1.173,4.264,0L89.53,61.136c2.344-2.344,5.125-6.838,6.173-9.989l3.422-10.272L88.854,44.303z
			 M79.936,66.467c-1.767,1.767-4.629,1.767-6.396,0c-1.768-1.768-1.773-4.63,0-6.396c1.767-1.767,4.629-1.767,6.396,0
			C81.702,61.837,81.702,64.699,79.936,66.467z M88.465,57.938c-1.768,1.767-4.63,1.767-6.396,0c-1.768-1.767-1.768-4.629,0-6.396
			c1.767-1.767,4.629-1.767,6.396,0C90.231,53.309,90.231,56.171,88.465,57.938z"/>
		<path fill="#1D1D1B" d="M57.542,67.533l10.667-10.662c-2.35-2.344-6.185-2.344-8.528,0l-6.402,6.397
			c-1.172,1.172-1.172,3.092,0,4.265C54.45,68.705,56.37,68.705,57.542,67.533z"/>
		<path fill="#1D1D1B" d="M72.474,82.458c-1.173,1.172-1.173,3.092,0,4.265c1.172,1.172,3.092,1.172,4.264,0l6.396-6.397
			c2.345-2.344,2.345-6.184,0-8.528L72.474,82.458z"/>
		<path fill="#1D1D1B" d="M62.873,70.73c-0.583,0.589-0.583,1.55,0,2.132l4.271,4.265c0.583,0.59,1.543,0.59,2.132,0l1.066-1.065
			l-6.402-6.397L62.873,70.73z"/>
		<path fill="#1D1D1B" d="M50.875,89.125c6.031-3.016,15.078-9.047,12.062-12.062S53.891,83.094,50.875,89.125z"/>
	</g>
	<path display="inline" fill="#1D1D1B" d="M125.162,103.217V27.972H24.837v75.245h37.622v12.541H37.378v6.27h75.245v-6.27H87.541
		v-12.541H125.162z M31.107,96.945V34.242h87.785v62.703H31.107z"/>
</g>
<g id="Layer_7">
	<g>
		<path fill="#1D1D1B" d="M60.569,107.363c2.167-2.874,3.462-6.434,3.462-10.304c0-9.475-7.679-17.157-17.156-17.157
			c-4.848,0-9.215,2.018-12.337,5.251l-0.363,0.402l-0.57,0.631c-1.938,2.246-3.708,7.966-3.619,7.947
			c-0.162,0.955-0.268,1.926-0.268,2.926c0,3.87,1.301,7.43,3.462,10.304C27.619,111.535,24,118.164,24,125.652h17.156l2.859-8.577
			v-2.859h5.719v2.859l2.859,8.577H69.75C69.75,118.164,66.137,111.535,60.569,107.363z M46.875,111.356
			c-7.881,0-14.298-6.414-14.298-14.297c0-1.368,0.257-2.664,0.615-3.914c3.702-1.56,6.751-4.365,8.589-7.914
			c3.15,3.906,7.964,6.413,13.37,6.413c1.603,0,3.144-0.246,4.613-0.661c0.877,1.852,1.408,3.896,1.408,6.076
			C61.172,104.942,54.76,111.356,46.875,111.356z"/>
		<path fill="#1D1D1B" d="M41.156,94.915c-1.385,0-2.502,1.119-2.502,2.502c0,1.382,1.117,2.502,2.502,2.502
			c1.385,0,2.502-1.12,2.502-2.502C43.659,96.034,42.542,94.915,41.156,94.915z"/>
		<path fill="#1D1D1B" d="M52.236,94.915c-1.379,0-2.502,1.119-2.502,2.502c0,1.382,1.123,2.502,2.502,2.502
			c1.385,0,2.502-1.12,2.502-2.502C54.738,96.034,53.621,94.915,52.236,94.915z"/>
	</g>
	<g>
		<path fill="#1D1D1B" d="M120.501,111.211c-6.825,2.488-12.314,7.672-15.211,14.289h20.308
			C125.598,120.077,123.684,115.104,120.501,111.211z"/>
		<path fill="#1D1D1B" d="M85.501,111.211c-3.184,3.894-5.099,8.866-5.099,14.289h20.309
			C97.813,118.883,92.32,113.699,85.501,111.211z"/>
		<path fill="#1D1D1B" d="M119.336,101.717c0.772,1.312,1.886,2.444,3.332,3.202c0.806,0.423,1.65,0.66,2.5,0.808
			c1.429-5.013-0.777-10.504-5.55-13.058c-0.079,0.113-0.586-0.913-0.823-1.517l-0.082-0.233c-0.326-0.802-0.712-1.571-1.153-2.305
			l-0.188-0.312c-0.452-0.725-0.948-1.415-1.506-2.061l-0.171-0.193c-1.169-1.324-2.544-2.46-4.071-3.368l-0.233-0.142
			c-0.749-0.424-1.526-0.791-2.344-1.102l-0.314-0.117c-0.827-0.297-1.683-0.541-2.571-0.708l-0.171-0.026
			c-0.92-0.167-1.87-0.265-2.842-0.272h-0.005l-0.143-0.009l-0.145,0.009h-0.011c-0.965,0.008-1.914,0.105-2.836,0.272l-0.177,0.026
			c-0.882,0.167-1.737,0.411-2.565,0.708l-0.319,0.117c-0.811,0.311-1.589,0.676-2.34,1.102l-0.236,0.146
			c-1.522,0.903-2.891,2.036-4.056,3.355l-0.191,0.21c-0.547,0.64-1.043,1.324-1.49,2.042l-0.204,0.331
			c-0.431,0.729-0.817,1.49-1.143,2.291l-0.089,0.248c-0.231,0.602-0.745,1.619-0.821,1.506c-4.766,2.554-6.974,8.045-5.55,13.058
			c0.85-0.147,1.693-0.385,2.499-0.808c1.451-0.758,2.565-1.89,3.338-3.202c1.964,7.191,8.518,12.485,16.336,12.485
			C110.813,114.202,117.372,108.908,119.336,101.717z M103.001,111.377c-7.791,0-14.123-6.336-14.123-14.123
			c0-1.004,0.109-1.98,0.313-2.927c0.364,0.039,0.724,0.102,1.098,0.102c6.533,0,11.851-4.943,12.567-11.286l0.145-0.013
			l0.143,0.013c0.717,6.343,6.036,11.286,12.568,11.286c0.374,0,0.733-0.062,1.098-0.102c0.198,0.946,0.314,1.923,0.314,2.927
			C117.124,105.041,110.784,111.377,103.001,111.377z"/>
		<path fill="#1D1D1B" d="M97.352,95.136c-1.369,0-2.473,1.105-2.473,2.471s1.104,2.473,2.473,2.473
			c1.363,0,2.472-1.107,2.472-2.473S98.715,95.136,97.352,95.136z"/>
		<path fill="#1D1D1B" d="M108.297,95.136c-1.369,0-2.473,1.105-2.473,2.471s1.104,2.473,2.473,2.473
			c1.368,0,2.472-1.107,2.472-2.473S109.665,95.136,108.297,95.136z"/>
	</g>
	<path fill="#1D1D1B" d="M93.094,48.789h-3.016v3.016c0,4.65-4.394,9.047-9.047,9.047H67.202l-4.265,4.265v1.767
		c0,3.016,3.016,6.031,6.031,6.031h15.078l9.047,9.047v-9.047c3.016,0,6.031-3.016,6.031-6.031V54.82
		C99.125,51.805,96.109,48.789,93.094,48.789z"/>
	<path fill="#1D1D1B" d="M65.953,57.836h15.078c3.016,0,6.031-3.016,6.031-6.031V39.742c0-3.016-3.016-6.031-6.031-6.031H56.906
		c-3.016,0-6.031,3.016-6.031,6.031v12.062c0,3.016,3.016,6.031,6.031,6.031v9.047L65.953,57.836z"/>
</g>
<g id="Layer_5" display="none">
	<path display="inline" fill="#1D1D1B" d="M89.241,83.235h-9.618c-0.577-1.845-1.387-3.587-2.368-5.207l6.393-6.397
		c1.508-1.492,1.508-3.927,0-5.429l-2.713-2.699c-1.508-1.498-3.938-1.498-5.435,0l-6.49,6.478c-1.755-1-3.655-1.767-5.681-2.295
		v-8.428c0-2.122-1.705-3.84-3.828-3.84h-3.839c-2.11,0-3.84,1.718-3.84,3.84v8.428c-2.196,0.558-4.269,1.441-6.171,2.595
		l-5.434-5.428c-1.498-1.497-3.939-1.497-5.423,0l-2.724,2.711c-1.497,1.49-1.484,3.932,0.013,5.434l5.532,5.533
		c-1.178,2.037-2.048,4.27-2.552,6.625h-7.226c-2.123,0-3.84,1.719-3.84,3.84v3.84c0,2.11,1.717,3.828,3.84,3.828h7.716
		c0.7,2.318,1.755,4.454,3.104,6.393l-5.214,5.214c-1.508,1.509-1.508,3.943-0.012,5.435l2.711,2.711
		c1.497,1.497,3.939,1.497,5.435,0l5.828-5.828c1.963,0.97,4.097,1.682,6.342,2.05v8.023c0,2.123,1.706,3.84,3.828,3.84h3.84
		c2.123,0,3.841-1.717,3.841-3.84v-9.017c1.938-0.688,3.765-1.602,5.422-2.768l6.184,6.19c1.497,1.496,3.926,1.496,5.435,0
		l2.711-2.719c1.497-1.496,1.497-3.926-0.013-5.429l-6.771-6.783c0.835-1.687,1.472-3.485,1.877-5.387h9.141
		c2.122,0,3.84-1.706,3.852-3.839v-3.834C93.081,84.96,91.363,83.235,89.241,83.235z M57.588,99.548c-5.3,0-9.593-4.282-9.593-9.595
		c0-5.3,4.293-9.581,9.593-9.581s9.594,4.281,9.594,9.581C67.183,95.266,62.888,99.548,57.588,99.548z"/>
	<path display="inline" fill="#1D1D1B" d="M122.047,41.702h-6.122c-0.368-1.165-0.884-2.282-1.497-3.312l4.061-4.073
		c0.958-0.944,0.958-2.491,0-3.447l-1.729-1.717c-0.957-0.958-2.503-0.958-3.447,0l-4.135,4.122
		c-1.115-0.638-2.331-1.129-3.618-1.46v-5.367c0-1.344-1.093-2.448-2.442-2.448h-2.441c-1.337,0-2.441,1.104-2.441,2.448v5.367
		c-1.398,0.355-2.711,0.914-3.926,1.644l-3.459-3.448c-0.946-0.957-2.503-0.957-3.448,0l-1.729,1.717
		c-0.957,0.958-0.944,2.503,0,3.46l3.521,3.521c-0.747,1.3-1.301,2.717-1.618,4.22h-4.602c-1.35,0-2.441,1.092-2.441,2.441v2.441
		c0,1.35,1.092,2.442,2.441,2.442h4.907c0.453,1.472,1.116,2.828,1.975,4.061l-3.312,3.324c-0.958,0.958-0.958,2.503-0.012,3.46
		l1.729,1.718c0.956,0.957,2.502,0.957,3.459,0l3.706-3.706c1.25,0.614,2.6,1.068,4.035,1.301v5.104
		c0,1.349,1.093,2.448,2.442,2.454h2.441c1.349-0.006,2.441-1.105,2.441-2.454v-5.729c1.227-0.442,2.392-1.019,3.447-1.767
		l3.938,3.938c0.958,0.958,2.49,0.958,3.46,0l1.718-1.729c0.956-0.944,0.956-2.491,0-3.453l-4.318-4.312
		c0.54-1.08,0.944-2.221,1.202-3.423h5.815c1.35,0,2.441-1.091,2.453-2.447V44.15C124.488,42.806,123.396,41.702,122.047,41.702z
		 M101.902,52.087c-3.375,0-6.111-2.73-6.111-6.104c0-3.374,2.736-6.104,6.111-6.104c3.373,0,6.109,2.729,6.109,6.104
		C108.012,49.357,105.275,52.087,101.902,52.087z"/>
</g>
<g id="Layer_6" display="none">
	<path display="inline" fill="#1D1D1B" d="M31.34,83.401c0.421-4.159,4.139-7.195,8.306-6.774l11.291,1.152l0.042-0.331l-8.953-0.91
		c-3.643-0.373-6.256-4.049-5.829-8.216c0.428-4.167,3.718-7.243,7.367-6.87l29.956,3.056l4.257,0.062c0,0-6.152-2.787-1.429-25.039
		c4.712-22.245,17.176-13.892,17.176-13.892s0.166,19.003,0.835,21.7c0.676,2.697,15.292,31.137,15.292,31.137
		c0,1.504,9.057,3.007,9.05,4.525c-0.104,13.077,0,24.265,0,37.812c-9.712-2.539-14.906,5.083-35.654,5.083
		c-6.773,0-15.251-1.103-22.383-2.283l-18.68-1.903c-3.234-0.331-5.518-3.973-5.097-8.14c0.33-3.214,2.192-5.76,4.518-6.614
		l-2.353-0.242c-3.696-0.379-6.359-4.056-5.932-8.222c0.365-3.572,2.911-6.194,5.945-6.677l-0.951-0.097
		C33.947,91.292,30.913,87.567,31.34,83.401z"/>
</g>
</svg>
