<?xml version="1.0" encoding="utf-8"?>
<!-- Generator: Adobe Illustrator 16.0.0, SVG Export Plug-In . SVG Version: 6.00 Build 0)  -->
<!DOCTYPE svg PUBLIC "-//W3C//DTD SVG 1.1//EN" "http://www.w3.org/Graphics/SVG/1.1/DTD/svg11.dtd">
<svg version="1.1" xmlns="http://www.w3.org/2000/svg" xmlns:xlink="http://www.w3.org/1999/xlink" x="0px" y="0px" width="150px"
	 height="150px" viewBox="0 0 150 150" enable-background="new 0 0 150 150" xml:space="preserve">
<symbol  id="Music" viewBox="-30.953 -30.311 61.905 60.62">
	<path d="M30.874-15.991h0.057v46.146l0.021,0.154l-0.021-0.003v0.003l-0.048-0.009l-44.898-6.012h-0.003v-36.461
		c-1.777,0.568-3.777,0.798-5.862,0.595c-6.597-0.641-11.538-5.337-11.038-10.489c0.501-5.152,6.253-8.812,12.849-8.172
		c6.598,0.642,11.539,5.337,11.038,10.49c-0.009,0.087-0.03,0.171-0.042,0.258h0.057v31.628l30.947,4.521V-8.671
		c-1.777,0.568-3.776,0.798-5.862,0.595c-6.598-0.642-11.54-5.338-11.04-10.49c0.501-5.152,6.253-8.812,12.849-8.172
		c6.598,0.642,11.539,5.337,11.038,10.49C30.907-16.161,30.886-16.078,30.874-15.991z"/>
</symbol>
<g id="Layer_1">
	
		<use xlink:href="#Music"  width="61.905" height="60.62" x="-30.953" y="-30.311" transform="matrix(1.9342 0 0 -1.9342 75.0005 75)" display="none" overflow="visible"/>
</g>
<g id="Layer_2">
	<g display="none">
		<path display="inline" fill="#1D1D1B" d="M50.21,41.195l-4.508-4.508c-1.232-1.232-3.262-1.232-4.507,0
			c-1.233,1.245-1.233,3.275,0,4.508l4.507,4.507c1.245,1.245,3.275,1.245,4.508,0C51.455,44.47,51.455,42.44,50.21,41.195z"/>
		<path display="inline" fill="#1D1D1B" d="M33.575,68.625H27.2c-1.75,0-3.188,1.432-3.188,3.188S25.451,75,27.2,75h6.375
			c1.755,0,3.188-1.432,3.188-3.188S35.331,68.625,33.575,68.625z"/>
		<path display="inline" fill="#1D1D1B" d="M122.8,74.987h-6.375c-1.749,0-3.188,1.433-3.188,3.188c0,1.756,1.438,3.188,3.188,3.188
			h6.375c1.756,0,3.188-1.432,3.188-3.188C125.987,76.42,124.556,74.987,122.8,74.987z"/>
		<path display="inline" fill="#1D1D1B" d="M113.3,41.195c-1.232-1.233-3.263-1.233-4.507,0l-4.508,4.507
			c-1.232,1.245-1.232,3.275,0,4.508c1.245,1.245,3.274,1.245,4.508,0l4.507-4.508C114.545,44.47,114.545,42.44,113.3,41.195z"/>
		<path display="inline" fill="#1D1D1B" d="M78.188,36.763c0.871,0,1.668-0.361,2.254-0.946c0.572-0.573,0.934-1.37,0.934-2.254
			v-6.375c0-1.756-1.432-3.188-3.188-3.188c-1.313,0-2.453,0.81-2.932,1.955L75,27.2v6.375C75,35.331,76.432,36.763,78.188,36.763z"
			/>
		<path display="inline" fill="#1D1D1B" d="M74.987,49.5c-14.082,0-25.5,11.418-25.5,25.5c0,9.413,5.167,17.544,12.75,21.964v9.911
			h25.5v-9.911c7.596-4.42,12.75-12.551,12.75-21.964C100.487,60.918,89.07,49.5,74.987,49.5z M84.531,91.461l-3.169,1.842v3.661
			v3.536h-12.75v-3.536v-3.661l-3.162-1.842c-6.002-3.499-9.588-9.65-9.588-16.461c0-10.546,8.579-19.125,19.125-19.125
			S94.112,64.454,94.112,75C94.112,81.811,90.533,87.962,84.531,91.461z"/>
		<path display="inline" fill="#1D1D1B" d="M62.237,119.625h6.562l-0.187,0.797c0,3.075,2.876,5.578,6.375,5.578
			c3.512,0,6.375-2.503,6.375-5.578l-0.187-0.797h6.562v-6.375h-25.5V119.625z"/>
	</g>
</g>
<g id="Layer_3">
	<path fill="#1D1D1B" d="M124.823,24.236c-2.246-2.246-4.979,0.486-4.979,0.486s-13.665,13.669-16.397,16.401
		c-2.732,2.733-10.53,5.871-10.53,5.871l8.974,8.974c0,0,3.31-7.62,6.046-10.358c2.729-2.732,16.394-16.398,16.394-16.398
		S127.066,26.479,124.823,24.236z"/>
	<g>
		<path fill="#1D1D1B" d="M95.596,67.976c-1.882,2.265-4.754,4.331-9.152,5.353c0.148,0.621,0.235,1.265,0.235,1.931
			c0,4.591-3.736,8.328-8.328,8.328c-4.591,0-8.328-3.736-8.328-8.328c0-4.592,3.737-8.328,8.328-8.328
			c0.161,0,0.318,0.015,0.478,0.024c1.031-2.671,1.902-6.135,3.645-10.422c-4.259-1.694-9.516-2.689-16.019-2.689
			c-28.553,0-42.829,28.553-42.829,47.588c0,4.759,9.518,14.276,14.276,0c2.128-6.386,14.276-4.759,14.276,4.759
			c0,10.642,4.759,19.035,14.276,19.035c28.553,0,33.312-23.794,33.312-38.07C99.766,81.011,98.877,73.987,95.596,67.976z
			 M42.66,88.346c-3.281,0-5.949-2.667-5.949-5.948s2.667-5.948,5.949-5.948s5.948,2.667,5.948,5.948S45.941,88.346,42.66,88.346z
			 M53.367,70.5c0-3.281,2.667-5.948,5.949-5.948s5.948,2.667,5.948,5.948s-2.667,5.949-5.948,5.949S53.367,73.782,53.367,70.5z
			 M68.833,112.14c-4.591,0-8.328-3.736-8.328-8.327c0-4.592,3.737-8.328,8.328-8.328s8.328,3.736,8.328,8.328
			C77.161,108.403,73.425,112.14,68.833,112.14z M83.109,97.863c-1.97,0-3.568-1.599-3.568-3.568c0-1.971,1.599-3.569,3.568-3.569
			c1.971,0,3.569,1.599,3.569,3.569C86.679,96.265,85.08,97.863,83.109,97.863z"/>
		<path fill="#1D1D1B" d="M89.415,60.524c-1.044-0.841-2.197-1.616-3.45-2.325c-1.681,3.059-3.136,6.803-4.344,9.403
			c0.462,0.198,0.901,0.438,1.316,0.713C86.051,65.855,88.21,63.048,89.415,60.524z"/>
		<path fill="#1D1D1B" d="M89.509,53.644c1.449,0.968,1.429,3.694-0.094,6.88c2.665,2.147,4.674,4.693,6.181,7.452
			c3.557-4.283,3.565-9.275,3.565-9.275l-8.978-8.978c0,0-5.447,1.371-7.484,6.245c-0.081,0.194-0.148,0.375-0.227,0.566
			c1.249,0.497,2.41,1.055,3.492,1.666C87.055,56.215,88.238,54.524,89.509,53.644z"/>
		<path fill="#1D1D1B" d="M82.938,68.315c-0.873,0.689-1.808,1.356-2.832,1.976c0.449-0.521,0.958-1.488,1.516-2.688
			c-0.865-0.371-1.808-0.59-2.793-0.646c-1.271,3.29-2.802,5.385-6.578,6.317c5.952,1.034,10.583,0.895,14.193,0.055
			C85.946,71.247,84.672,69.465,82.938,68.315z"/>
	</g>
</g>
</svg>
