<?xml version="1.0" encoding="utf-8"?>
<!-- Generator: Adobe Illustrator 16.0.0, SVG Export Plug-In . SVG Version: 6.00 Build 0)  -->
<!DOCTYPE svg PUBLIC "-//W3C//DTD SVG 1.1//EN" "http://www.w3.org/Graphics/SVG/1.1/DTD/svg11.dtd">
<svg version="1.1" id="Layer_1" xmlns="http://www.w3.org/2000/svg" xmlns:xlink="http://www.w3.org/1999/xlink" x="0px" y="0px"
	 width="402px" height="278px" viewBox="0 0 402 278" enable-background="new 0 0 402 278" xml:space="preserve">
<g>
	<g>
		<g>
			<g enable-background="new    ">
				
					<image overflow="visible" opacity="0.75" enable-background="new    " width="397" height="66" xlink:href="56119081DE26C70.png"  transform="matrix(1 0 0 1 4.5 185.5)">
				</image>
				<g>
					<g>
						<path fill="#FFFFFF" d="M10.774,240.771c-1.26-1.008-1.89-2.268-1.89-3.694c0-0.841,0.21-1.849,0.63-2.688
							c0.525-1.008,1.785-1.428,2.939-1.092c1.155,0.336,1.68,1.428,1.26,2.352c-0.42,0.841-0.734,1.933,0.105,2.604
							c0.839,0.672,3.149,0.756,5.354-0.084l0.105-0.084c2.624-1.344,3.884-4.03,3.359-7.139c-0.525-2.604-1.47-5.207-2.939-8.062
							h0.104c-0.63-1.092-1.574-2.268-2.729-3.526l-1.89-2.437c-1.364-1.848-2.414-3.61-3.464-5.711
							c-0.945-1.933-1.995-4.451-2.31-7.139c-0.105-1.261-0.105-2.771,0-4.115c0.63-4.535,3.149-7.644,6.719-8.397
							c2.624-0.504,6.823,0.084,9.343,2.016c0.84,0.756,0.84,1.764,0,2.436c-0.84,0.672-2.31,0.672-3.149,0
							c-1.05-0.84-3.569-1.26-4.934-0.924c-2.1,0.42-3.149,2.939-3.569,5.207c-0.105,1.008-0.105,2.604,0,3.527
							c0.314,2.1,1.26,4.367,2.204,6.131c1.05,2.268,1.995,3.863,2.939,5.207c0.525,0.756,1.155,1.512,1.785,2.268l0.42,0.504
							c0.944,1.176,1.994,2.437,2.624,3.611h-0.104c1.784,3.107,2.834,6.047,3.359,8.902c0.734,4.703-1.365,8.733-5.879,10.918
							l-1.365,0.42h0.105c-1.26,0.42-2.52,0.588-3.779,0.588C14.029,242.368,12.034,241.78,10.774,240.771z"/>
						<path fill="#FFFFFF" d="M58.331,242.62c-0.63-0.756-0.84-1.429-0.84-1.849l-0.42-2.52c-0.21-1.512-0.525-2.771-0.63-4.031
							c-0.21-1.008-0.315-2.268-0.42-3.527c0-0.756-0.105-1.596-0.21-2.436c0-0.252,0-0.588-0.105-1.008
							c0-0.084-0.104-0.252-0.104-0.336c0-0.168-0.105-0.336-0.105-0.504c-0.104-0.336-0.21-1.008-0.21-1.26l-0.314-1.849
							l-0.42,1.177c0,0.168-0.105,0.168-0.105,0.336c-0.21,1.344-0.63,2.352-1.05,3.274c-0.104,0.504-0.314,1.009-0.524,1.345
							l-0.945,2.771l-1.05,3.61c-0.21,0.84-0.524,1.681-1.26,2.771l0.105-0.084c-0.21,0.504-0.525,0.924-1.68,2.184
							c-0.525,0.588-1.575,0.84-2.52,0.588c-0.945-0.252-1.47-0.84-1.575-1.596v-1.596c0-0.504-0.104-1.092-0.104-1.68
							s-0.105-1.092-0.105-1.68c-0.104-1.093-0.21-2.604-0.21-3.779c0-0.504,0-1.092-0.104-1.765l-0.21-1.512l-0.42-5.543
							c-0.21-1.176-0.315-2.771-0.42-4.199l-0.21-2.436c0-0.925-0.105-1.933-0.21-2.939l-0.21-1.848
							c-0.315-2.353-0.63-5.039-0.735-7.476c-0.104-1.512-0.104-3.61-0.104-5.123v-1.848c0-1.008,0.84-1.848,2.204-1.848
							c1.155,0,2.205,0.84,2.205,1.764v1.932c0,1.681,0,3.359,0.104,4.955c0.21,2.437,0.42,4.871,0.735,7.224
							c0.104,0.588,0.21,1.428,0.21,2.1l0.314,3.022v1.093c0,0.42,0.105,0.84,0.21,1.428l0.315,3.863l0.524,5.711
							c0,0.42,0,0.756,0.105,1.26c0,0.42,0.104,0.841,0.21,1.261l0.524-1.681l0.525-1.26c0-0.168,0.21-0.504,0.21-0.672
							c0.314-0.841,0.734-1.681,0.84-2.185c0.104-0.84,0.314-1.596,0.63-2.1c0-0.084,0.104-0.168,0.104-0.252l0.315-0.924
							c0.104-0.504,0.42-1.092,0.524-1.596l1.68-4.619c0.21-0.672,1.155-1.26,2.31-1.176c0.945,0.084,1.785,0.672,1.995,1.344
							v-0.084c0.63,1.848,1.05,3.947,1.574,6.635c0,0.252,0,0.504,0.105,0.756c0,0.252,0.104,0.672,0.104,0.924
							c0.105,0.504,0.21,1.176,0.21,1.764l0.315,1.513c0.104,0.504,0.21,1.008,0.21,1.512l0.21,1.681v-0.084
							c0.524-2.437,0.944-4.619,1.05-6.804c0.314-4.03,0.84-8.229,1.364-12.178l0.42-3.359l0.315-2.352v0.084
							c0-0.589,0.21-1.345,0.21-1.933c0.21-1.344,0.314-2.604,0.42-3.947c0-1.512,0.21-3.106,0.21-4.618v-2.353
							c0-0.924,1.05-1.764,2.414-1.764c1.155,0.168,2.205,1.008,1.995,1.932v2.185c0,1.596-0.105,3.19-0.21,4.702
							c-0.105,1.345-0.21,2.855-0.42,4.283c0,0.588-0.21,1.428-0.21,1.933l-0.315,2.184l-0.42,3.443
							c-0.524,3.946-1.05,7.896-1.26,11.926c-0.21,2.771-0.734,5.291-1.26,7.728l-0.84,3.862c0,0.421-0.21,1.093-0.21,1.513
							c-0.21,1.68-0.524,3.358-1.154,4.955c0,0.084-0.105,0.252-0.105,0.252c-0.21,0.588-0.734,1.344-1.89,1.68
							c-0.21,0.084-0.524,0.084-0.63,0.084C59.171,242.956,58.541,242.872,58.331,242.62z"/>
						<path fill="#FFFFFF" d="M87.937,239.598c0,0.924-0.84,1.764-2.205,1.764c-1.154,0-2.204-0.84-2.204-1.764
							c0-7.56,0.314-15.537,1.05-22.677c0.104-1.932,0.21-4.451,0.42-6.383c0.314-5.795,0.63-12.347,2.625-18.058
							c0.314-0.84,1.154-1.26,2.204-1.26c1.05,0,1.995,0.588,2.1,1.428l1.05,4.115l3.254,12.178l2.625,10.078l0.105,0.42
							c1.574,6.552,3.359,13.857,4.724,19.82c0.21,0.924-0.524,1.848-2.1,2.1c-1.05,0-1.995-0.756-2.31-1.512
							c-1.154-5.459-2.834-12.514-4.409-18.477c-0.42,0-0.84,0.084-1.155,0.084h-5.144
							C88.042,227.335,87.937,233.634,87.937,239.598z M91.821,209.614c-0.84-3.107-1.051-3.611-1.891-6.888
							c-0.314,2.604-0.42,5.291-0.524,7.896c-0.104,2.101-0.21,4.283-0.42,6.467v0.084c-0.104,0.42-0.104,0.336-0.104,0.757
							c1.364,0,2.414,0,3.674-0.085h1.47L91.821,209.614z"/>
						<path fill="#FFFFFF" d="M134.968,240.018c0-5.795-0.314-22.761-0.734-35.861v0.336l-0.525,1.68
							c-1.68,5.207-3.044,9.91-5.039,12.598c-0.314,0.252-0.734,0.504-1.26,0.588c-0.84,0-1.574-0.168-1.994-0.588h0.105
							c-0.735-0.588-1.891-2.436-2.1-2.854l-0.631-1.933c0-0.252-0.104-0.504-0.209-0.756l-0.631-2.268l-0.209-0.588l-0.315-1.428
							v0.672c0,0.672,0.104,1.344,0.104,2.016v6.131c0,1.26,0.105,2.604,0.105,3.863c0,2.52,0.105,5.039,0.21,7.643
							c0,1.176,0.104,2.353,0.21,3.527v-0.084c0.21,1.932,0.42,4.031,0.42,6.131c0,1.008-1.05,1.848-2.205,1.848
							c-1.364,0-2.204-0.84-2.204-1.848c-0.104-1.932-0.21-3.863-0.42-5.795l-0.315-3.695c-0.209-3.862-0.209-7.811-0.209-11.59
							c0-2.016,0-4.031-0.105-6.047v-4.031c0-0.84-0.105-1.764-0.21-2.688c0-0.42-0.104-1.008-0.104-1.428
							c-0.105-1.176-0.211-2.855-0.211-4.115c0-0.756,0-1.932,0.105-2.688c0-0.337,0-1.177,0.105-1.513
							c0-0.084,0.104-0.252,0.104-0.504c0-0.084,0.104-0.168,0.104-0.42c-0.104-0.84,0.631-1.513,1.471-1.765
							c0.84-0.252,1.889,0,2.52,0.756v-0.084c0.209,0.168,0.42,0.673,0.734,1.093l0.525,0.84c0.42,1.008,0.84,2.185,1.469,4.199
							l0.315,1.512l0.21,0.756c0,0.084,0,0.168,0.21,0.505c0,0.168,0.104,0.42,0.21,0.672c0,0.084,0,0.168,0.105,0.42l0.314,1.764
							l0.734,3.359c0.105,0.672,0.315,1.512,0.315,1.344v-0.168l0.944,2.771v0.084c0.945-2.688,1.891-5.711,2.835-8.649l0.315-1.092
							c1.574-4.871,2.834-8.902,4.094-10.834c0.42-0.757,1.47-1.093,2.52-0.841c0.84,0.253,1.47,0.925,1.574,1.681
							c0.42,11.002,1.051,40.312,1.155,47.367c0,0.924-1.05,1.764-2.31,1.764C136.019,241.78,134.968,240.939,134.968,240.018z"/>
						<path fill="#FFFFFF" d="M158.903,239.514l-0.314-4.115c0-0.42-0.105-0.756-0.105-1.176c-0.104-0.841-0.209-2.017-0.209-3.023
							c0-0.588,0-1.26-0.105-1.932c0-1.597-0.105-3.443-0.21-5.291c0-1.093-0.104-1.681-0.21-3.023
							c-0.525-0.252-1.154-0.756-1.26-1.176c-0.21-0.756,0.105-1.512,0.84-1.933l-0.42-2.771c-0.525-2.939-1.05-6.215-1.154-9.322
							c0,0-0.105-0.588-0.211-1.26v-0.756c0-0.252-0.104-0.504-0.104-0.84l-0.21-3.359l-0.42-6.803c0-0.924,0.84-1.764,1.994-1.849
							c3.779-0.168,9.029,0.589,11.653,3.611c2.729,3.274,4.409,8.397,4.724,15.117c0.211,4.198-0.42,6.467-5.039,9.489
							c-1.364,0.84-3.568,1.345-5.879,1.597l0.211,3.106l0.209,5.291v2.101l0.315,4.03c0,0.42,0.104,0.84,0.104,1.261
							c0.105,0.924,0.211,2.1,0.211,3.022c0,0.924-0.84,1.764-2.205,1.764C160.059,241.275,159.009,240.521,158.903,239.514z
							 M159.639,199.452l0.21,3.358c0,0,0.105,0.588,0.21,1.26v0.841c0,0.252,0.104,0.504,0.104,0.756
							c0.211,2.938,0.631,6.047,1.155,8.985l0.42,2.437c1.47-0.252,3.149-0.504,3.989-1.176c2.834-1.849,3.149-2.938,3.045-6.215
							c-0.315-5.88-1.68-10.498-3.99-13.103c-1.154-1.344-3.148-1.932-5.354-2.1L159.639,199.452z"/>
						<path fill="#FFFFFF" d="M231.341,238.757c-0.21-0.756-0.63-1.596-1.153-2.437c-0.525-0.756-1.051-1.596-1.365-2.52
							c-0.42-1.008-0.734-2.1-0.945-3.107c-0.104-0.42-0.209-0.924-0.42-1.344c-0.314-1.26-0.523-2.604-0.734-4.031
							c-0.42-2.436-0.84-5.038-2.1-7.475c-0.42,0.252-0.734,0.504-1.051,0.84l-1.154,0.84c0,0.084-0.104,0.084-0.209,0.168
							l-1.154,0.841l-0.211,4.198c-0.21,2.771-0.42,5.627-0.42,8.398c0,1.176,0,2.52-0.105,3.863
							c-0.104,1.26-0.104,2.604-0.104,3.695c0,0.924-0.943,1.68-2.204,1.68c-1.155,0-2.1-0.756-2.1-1.68
							c0-1.177,0.104-2.521,0.104-3.863c0.104-1.26,0.209-2.604,0.209-3.695c0-2.855,0.105-5.795,0.314-8.566l0.314-5.459
							c0-2.604-0.209-5.459-0.42-8.146c-0.209-1.513-0.314-3.022-0.42-4.535v-1.596c0.104-1.429,0.104-3.695,0-5.711
							c-0.209-2.521-0.63-3.527-0.84-3.863c-0.84-0.168-1.47-0.756-1.574-1.596c0-0.925,0.944-1.681,2.1-1.765h2.205
							c1.05,0.084,2.1,0.084,3.254,0.42c4.095,1.177,7.559,3.443,9.134,6.047c0.735,1.093,1.155,2.269,1.364,3.443
							c0,0.336,0.105,0.672,0.211,1.008c0.104,0.672,0.314,1.428,0.314,2.185c0,2.184-0.525,4.45-1.681,6.551
							c-0.63,1.345-1.47,2.604-2.625,3.611c1.995,3.274,2.521,6.803,3.045,9.657c0.21,1.345,0.42,2.604,0.733,3.779
							c0.212,0.42,0.316,0.924,0.421,1.428c0.211,1.008,0.524,1.933,0.84,2.771c0.211,0.672,0.631,1.344,1.051,2.016
							c0.63,1.008,1.261,2.017,1.574,3.191c0.313,0.924-0.42,1.848-1.574,2.016c-0.211,0-0.315,0.084-0.524,0.084
							C232.495,240.102,231.551,239.514,231.341,238.757z M220.316,204.911v1.344c0.105,1.513,0.211,3.022,0.42,4.451l0.315,5.123
							c0.421-0.252,0.735-0.588,1.05-0.84l0.42-0.253l-0.313-0.42c-0.735-0.756-0.524-1.848,0.42-2.436
							c0.84-0.42,1.994-0.42,2.834,0.168c0.42-0.588,0.733-1.176,1.05-1.848c0.944-1.596,1.364-3.443,1.364-5.123
							c0-0.504-0.104-1.092-0.209-1.596l-0.315-1.176c-0.104-0.841-0.42-1.681-0.84-2.437c-1.154-1.765-3.675-3.359-6.719-4.283
							C220.316,197.771,220.423,200.964,220.316,204.911z"/>
						<path fill="#FFFFFF" d="M251.707,239.598c0,0.924-0.84,1.764-2.204,1.764c-1.155,0-2.205-0.84-2.205-1.764
							c0-7.56,0.313-15.537,1.05-22.677c0.104-1.932,0.211-4.451,0.42-6.383c0.315-5.795,0.631-12.347,2.625-18.058
							c0.314-0.84,1.154-1.26,2.205-1.26c1.049,0,1.993,0.588,2.1,1.428l1.05,4.115l3.255,12.178l2.624,10.078l0.104,0.42
							c1.574,6.552,3.358,13.857,4.725,19.82c0.21,0.924-0.525,1.848-2.1,2.1c-1.051,0-1.994-0.756-2.311-1.512
							c-1.154-5.459-2.835-12.514-4.408-18.477c-0.421,0-0.841,0.084-1.154,0.084h-5.146
							C251.812,227.335,251.707,233.634,251.707,239.598z M255.591,209.614c-0.84-3.107-1.049-3.611-1.889-6.888
							c-0.315,2.604-0.42,5.291-0.525,7.896c-0.104,2.101-0.21,4.283-0.42,6.467v0.084c-0.104,0.42-0.104,0.336-0.104,0.757
							c1.365,0,2.414,0,3.675-0.085h1.47L255.591,209.614z"/>
						<path fill="#FFFFFF" d="M280.893,241.527c-0.42-0.336-0.734-0.84-0.734-1.26v-5.627c0-4.031,0.105-8.229,0.105-12.346
							c0-4.115-0.105-8.23-0.105-12.346v-16.461c0-0.42,0.314-0.924,0.84-1.344c0.314-0.168,0.84-0.42,1.47-0.42
							c1.995,0.084,3.149,0.168,3.989,0.336c0.105,0.084,0.314,0.084,0.84,0.084c0.945,0.084,2.1,0.252,3.045,0.756h-0.105
							c5.354,3.022,5.564,7.643,5.25,11.338c-0.315,2.938-0.84,6.047-3.045,8.229c-0.84,0.841-2.205,1.849-3.778,3.023l-0.211,0.084
							l0.735,0.42h-0.104c3.254,1.764,6.508,3.526,7.663,7.476c0.314,1.26,0.523,2.604,0.523,4.114
							c0.105,2.604-0.104,5.375-1.994,8.565c-0.42,0.757-1.26,1.765-2.52,2.521l-2.414,1.429l-0.84,0.336
							c-0.314,0.168-0.734,0.42-1.051,0.504h0.105c-0.841,0.504-2.101,0.756-3.149,0.924c-1.155,0.168-1.995,0.252-2.624,0.252
							C282.361,242.116,281.627,242.116,280.893,241.527z M284.671,213.479l1.155-0.756v0.084c0.943-0.673,1.994-1.597,3.044-2.604
							c1.364-1.513,1.995-4.031,2.205-6.216c0.42-4.114-0.63-6.467-3.046-7.979c-0.313-0.252-0.42-0.252-0.523-0.252
							c-0.21,0-0.42-0.084-0.63-0.084c-0.63,0-1.365-0.084-1.89-0.252c-0.104,0,0,0.084-0.42,0v2.604
							c0,1.093,0.104,2.101,0.104,3.107c0,1.008-0.104,2.1-0.104,3.107v5.711C284.671,210.958,284.671,212.302,284.671,213.479z
							 M284.986,238.337l0.42-0.168l0.943-0.252c0.211-0.168,0.735-0.42,0.945-0.504l0.945-0.504l1.994-1.093h-0.105
							c0.42-0.252,0.734-0.672,1.051-1.176c1.469-2.352,1.68-4.535,1.68-7.055c0-1.092-0.211-2.268-0.524-3.359
							c-0.63-2.604-2.938-3.694-5.669-5.207c-0.523-0.168-1.26-0.756-1.26-0.672l-0.735-0.504L284.986,238.337z"/>
						<path fill="#FFFFFF" d="M313.121,241.527c-0.42-0.336-0.735-0.84-0.735-1.26v-5.627c0-4.031,0.105-8.229,0.105-12.346
							c0-4.115-0.105-8.23-0.105-12.346v-16.461c0-0.42,0.315-0.924,0.84-1.344c0.315-0.168,0.841-0.42,1.472-0.42
							c1.994,0.084,3.147,0.168,3.987,0.336c0.105,0.084,0.315,0.084,0.841,0.084c0.944,0.084,2.1,0.252,3.045,0.756h-0.105
							c5.354,3.022,5.564,7.643,5.25,11.338c-0.314,2.938-0.84,6.047-3.045,8.229c-0.84,0.841-2.205,1.849-3.779,3.023l-0.21,0.084
							l0.735,0.42h-0.105c3.255,1.764,6.51,3.526,7.664,7.476c0.314,1.26,0.524,2.604,0.524,4.114
							c0.104,2.604-0.104,5.375-1.995,8.565c-0.42,0.757-1.26,1.765-2.52,2.521l-2.414,1.429l-0.84,0.336
							c-0.314,0.168-0.734,0.42-1.051,0.504h0.104c-0.84,0.504-2.101,0.756-3.148,0.924c-1.154,0.168-1.995,0.252-2.625,0.252
							C314.591,242.116,313.856,242.116,313.121,241.527z M316.9,213.479l1.154-0.756v0.084c0.944-0.673,1.994-1.597,3.044-2.604
							c1.364-1.513,1.995-4.031,2.204-6.216c0.42-4.114-0.629-6.467-3.044-7.979c-0.314-0.252-0.42-0.252-0.523-0.252
							c-0.211,0-0.42-0.084-0.632-0.084c-0.629,0-1.363-0.084-1.889-0.252c-0.104,0,0,0.084-0.42,0v2.604
							c0,1.093,0.104,2.101,0.104,3.107c0,1.008-0.104,2.1-0.104,3.107v5.711C316.9,210.958,316.9,212.302,316.9,213.479z
							 M317.216,238.337l0.42-0.168l0.944-0.252c0.21-0.168,0.735-0.42,0.944-0.504l0.944-0.504l1.994-1.093h-0.104
							c0.42-0.252,0.734-0.672,1.05-1.176c1.47-2.352,1.68-4.535,1.68-7.055c0-1.092-0.21-2.268-0.524-3.359
							c-0.63-2.604-2.939-3.694-5.668-5.207c-0.525-0.168-1.261-0.756-1.261-0.672l-0.734-0.504L317.216,238.337z"/>
						<path fill="#FFFFFF" d="M345.35,240.521c0-3.359,0-6.888,0.104-10.246c0-2.437,0.104-7.14,0.104-9.658
							c0-4.031-0.104-8.062-0.313-12.094v-5.459c0-0.924,0.104-1.849,0.104-2.771c0-1.512-0.104-3.023-0.314-4.535
							c0-0.168,0-0.42-0.104-0.672v-0.672c0-0.168-0.104-0.252-0.104-0.504c-0.211-0.924,0.733-1.932,2.1-1.932h-0.104
							c1.26-0.168,2.31,0.588,2.414,1.596v0.504c0,0.168,0.104,0.336,0.104,0.504l0.21,0.84c0.21,2.016,0.21,4.283,0.21,6.215v1.512
							c-0.104,0.925-0.104,1.765-0.104,2.604c0,0.924,0,1.849,0.104,2.688c0.105,3.19,0.21,6.299,0.21,9.49
							c0,3.19-0.104,6.299-0.104,9.405v3.022c0,1.681-0.105,3.443-0.105,5.123v5.039c0,1.093-0.84,1.765-2.205,1.765
							C346.399,242.284,345.35,241.611,345.35,240.521z"/>
						<path fill="#FFFFFF" d="M380.833,241.695c-1.155,0-2.205-0.84-2.205-1.764l-0.42-13.27c-0.105-2.604-0.21-5.963-0.21-8.398
							l-0.21-8.397c0-0.505-0.105-1.177-0.21-1.849c0-0.336-0.104-0.672-0.104-1.008c-0.211-0.924-0.314-2.184-0.42-3.275
							c0-1.68,0-3.358-0.104-5.039v-3.19c-3.465,0.084-6.719,0.504-7.664,1.009c-0.42,0.168-0.84,0.336-1.26,0.336
							c-0.734,0-1.47-0.168-1.89-0.673c-0.734-0.84-0.42-1.932,0.629-2.52h-0.104c1.784-1.093,5.879-1.597,10.708-1.681
							c0.313-0.252,1.05-0.588,1.574-0.672c0.84,0,1.471,0.168,1.891,0.588h2.729c1.155,0,2.415,0.084,3.676,0.084
							c1.363,0.084,2.624,0.084,3.675,0.084c1.154,0,2.204,0.84,2.204,1.765c0,0.924-1.05,1.764-2.204,1.764h-6.51
							c-1.154,0-1.784-0.084-3.044-0.084c0,1.093,0,2.185,0.104,3.191c0,1.596,0,3.274,0.105,4.954c0,0.925,0.104,1.849,0.313,2.939
							c0,0.336,0.105,0.588,0.105,0.924c0.104,0.588,0.21,1.764,0.21,2.353c0.104,2.52,0.21,5.879,0.21,8.313l0.21,8.398l0.42,13.27
							c0,0.924-0.84,1.764-2.101,1.849L380.833,241.695L380.833,241.695z"/>
					</g>
				</g>
			</g>
			<g>
				
					<image overflow="visible" opacity="0.75" enable-background="new    " width="250" height="181" xlink:href="56119081DE26C77.png"  transform="matrix(1 0 0 1 87.5 -1.5)">
				</image>
				<g>
					<path fill="#FFFFFF" d="M320.481,147.387c-6.256-9.337-16.044-14.636-25.447-20.554c-2.757-4.969-4.634-9.789-0.466-13.293
						c8.936,8.559,32.651,12.691,19.14-4.295c-7.475-9.402-17.774-5.134-23.948-18.014c-6.25-13.027-6.546-22.619-18.964-32.16
						c-20.374-15.656-45.685-15.608-70.15-14.992c-4.271,0.105-18.981-2.542-26.986-2.854c0.551-2.218,2.305-4.235,3.754-7.342
						c5.035-10.805,23.066-8.757,32.542-9.103c24.599-0.897,37.381-10.555-3.854-18.022c-14.093-2.552-22.31,9.373-35.091,12.182
						c-9.043,1.987-18.607-4.253-27.641-0.299c-8.176,3.58-13.562,14.586-18.909,21.333l-0.595,0.785
						c-2.56,10.988,18.209,12.815,34.302,13.058c3.593,0.055,0.276,0.339,2.308,0.005c1.12,5.241,3.209,11.247,5.604,10.657
						c-23.798,5.874-5.154,1.411-29.312,4.807c-7.344,1.037-58.39,5.467-35.617,15.543c12.15,5.377,15.687-2.732,28.773-4.42
						c8.553-1.101,25.797-0.835,35.333-0.68c-1.944,0.846-58.754,15.163-48.172,24.32c9.793,8.477,18.253-11.34,53.646-10.969
						c9.819,0.104,27.938-3.709,38.84-7.853c14.33,2.433,15.943,3.556,28.459,7.938c3.592,13.676,26.203,32.357,32.554,35.666
						c3.278,1.707,6.214,3.48,8.917,5.32c13.916,7.213,27,24.412,31.043,28.055C326.954,176.993,330.099,161.743,320.481,147.387z"
						/>
				</g>
			</g>
			<g>
				
					<image overflow="visible" opacity="0.75" enable-background="new    " width="239" height="87" xlink:href="56119081DE26C72.png"  transform="matrix(1 0 0 1 71.5 107.5)">
				</image>
				<g>
					<g>
						<g>
							<g>
								<path fill="#FFFFFF" d="M256.41,165.307c28.482,3.194,12.958,13.353-64.034,13.192c-11.814-0.022-25.091-0.293-39.865-0.865
									c9.975,1.002,28.26,1.683,45.404,1.718c3.771,0.008,7.496-0.017,11.06-0.074c30.551-0.502,59.262-3.291,67.139-6.828
									C282.717,169.484,271.02,166.579,256.41,165.307"/>
							</g>
							<g>
								<path fill="#FFFFFF" d="M230.631,160.53c2.178,0.006,4.381,0.021,6.604,0.055c28.425,0.424,52.886,2.873,59.607,5.695
									c4.338,1.825,0.75,4.194-7.682,5.446c15.933-7.317-26.473-10.257-63.53-10.336c-17.683-0.035-34.14,0.582-42.474,1.685
									C190.974,161.729,209.514,160.486,230.631,160.53"/>
							</g>
							<g>
								<path fill="#FFFFFF" d="M128.378,168.9c-14.605,1.271-26.305,4.181-19.695,7.144c7.873,3.539,36.584,6.326,67.137,6.83
									c3.561,0.06,7.285,0.082,11.058,0.072c17.146-0.035,35.429-0.716,45.405-1.716c-14.776,0.572-28.053,0.841-39.866,0.865
									C115.426,182.253,99.894,172.096,128.378,168.9"/>
							</g>
						</g>
						<path fill="#FFFFFF" d="M121.835,156.381l1.944-3.648c1.182-2.252,2.393-4.494,3.574-6.979
							c-2.492,1.194-4.582,2.988-6.406,4.974c-1.585,1.749-2.944,3.683-4.109,5.716c1.597-3.531,3.333-6.979,5.234-10.302
							c2.063-3.582,4.314-7.036,6.953-10.167c2.634-3.138,5.654-5.932,9.53-7.966c-2.202,0.095-4.372,0.801-6.401,1.764
							c-2.01,1.007-3.896,2.286-5.584,3.768c-3.389,2.965-6.113,6.571-8.324,10.401c-0.563,0.981-1.091,1.98-1.588,2.994
							c0.297-1.322,0.582-2.643,0.854-3.961l1.894-9.344c0.636-3.117,1.336-6.197,2.138-9.461c-2.404,2.377-4.106,5.36-5.438,8.414
							c-1.313,3.073-2.244,6.274-2.916,9.495c-0.321,1.543-0.577,3.093-0.784,4.646c-0.018-0.45-0.036-0.902-0.054-1.353
							c-0.103-2.489-0.188-4.974-0.246-7.452l-0.125-7.473c-0.01-2.487-0.043-5.022-0.107-7.558
							c-0.068-1.268-0.108-2.543-0.225-3.819c-0.062-0.639-0.127-1.277-0.218-1.916c-0.052-0.32-0.107-0.64-0.178-0.956
							c-0.081-0.307-0.129-0.659-0.358-0.905c0.136,0.604-0.04,1.241-0.128,1.858c-0.101,0.62-0.212,1.241-0.336,1.861l-0.71,3.721
							c-0.428,2.49-0.886,4.975-1.194,7.518c-0.076,0.638-0.146,1.277-0.203,1.938l-0.035,0.501l-0.014,0.254
							c0.004-0.167,0-0.038,0-0.07v0.014l-0.004,0.031l-0.004,0.058l-0.012,0.118l-0.089,0.941
							c-0.115,1.289-0.188,2.573-0.237,3.851c-0.101,2.558-0.074,5.113,0.014,7.656c0.031,0.81,0.085,1.616,0.133,2.424
							c-0.4-0.803-0.853-1.586-1.388-2.328c-0.612-0.839-1.314-1.632-2.146-2.302c-0.834-0.655-1.794-1.221-2.849-1.405
							c0.942,1.862,1.389,3.539,1.912,5.27l1.486,5.163c0.288,0.985,0.593,1.972,0.911,2.961c-1.183-2.094-2.465-4.134-3.85-6.107
							c-2.836-4.024-6.08-7.809-9.875-11.045c-1.893-1.617-3.955-3.055-6.143-4.267c-2.205-1.164-4.574-2.111-7.026-2.396
							c4.27,2.396,7.624,5.668,10.763,9.146c3.124,3.487,5.961,7.241,8.67,11.096c2.701,3.865,5.273,7.837,7.745,11.896
							c1.894,3.106,3.724,6.247,5.497,9.488c0.157,0.679,0.313,1.356,0.481,2.034c-0.008,0.104-0.02,0.206-0.026,0.31
							c0.026-0.033,0.05-0.066,0.076-0.099c0.019,0.075,0.034,0.15,0.053,0.226c0.013-0.113,0.022-0.228,0.035-0.341
							c0.105-0.135,0.205-0.268,0.309-0.402c0.233,0.436,0.469,0.865,0.7,1.305c-0.066-0.632-0.152-1.261-0.253-1.887
							c1.499-1.973,2.858-3.927,4.257-5.808c1.663-2.271,3.349-4.447,5.133-6.535c1.787-2.082,3.662-4.078,5.667-6.02
							c1.998-1.959,4.134-3.828,6.333-5.92c-3.008,0.441-5.841,1.602-8.439,3.164C124.585,154.086,123.162,155.179,121.835,156.381z
							"/>
						<path fill="#FFFFFF" d="M276.1,147.139c-0.824,0.655-1.593,1.375-2.353,2.104c-0.747,0.741-1.461,1.518-2.151,2.312
							c-1.35,1.614-2.592,3.336-3.582,5.211c-0.31,0.583-0.596,1.185-0.853,1.8c0.219-0.834,0.463-1.659,0.741-2.473
							c0.346-0.965,0.695-1.924,1.106-2.862c0.396-0.944,0.819-1.879,1.276-2.801c0.436-0.931,0.906-1.847,1.385-2.761
							c0.463-0.922,0.965-1.828,1.441-2.748c0.973-1.834,1.959-3.674,2.811-5.593c-1.318,1.632-2.547,3.318-3.693,5.066
							c-0.586,0.869-1.119,1.771-1.654,2.674c-0.524,0.91-1.012,1.844-1.48,2.787c-0.447,0.953-0.874,1.922-1.248,2.91
							c-0.357,0.996-0.697,2.004-0.938,3.037c-0.283,1.168-0.616,3.115-0.616,3.115s-0.165-1.207-0.249-1.677
							c-0.294-1.65-0.802-3.259-1.452-4.8c-0.651-1.539-1.454-3.015-2.405-4.385c-0.943-1.373-2.029-2.658-3.309-3.729
							c0.855,1.426,1.668,2.829,2.422,4.262c0.747,1.438,1.444,2.889,2.071,4.369c0.63,1.479,1.188,2.986,1.67,4.523
							c0.47,1.532,0.848,3.092,1.124,4.714c-0.022,0.189-0.131,0.073-0.143,0.264c0.096-0.284,0.298-0.25,0.406-0.526
							c0.007,0.055,0.005,0.109,0.012,0.164c0.017-0.115,0.04-0.227,0.058-0.341c0.643-1.586,1.48-3.055,2.401-4.467
							c0.574-0.847,1.15-1.685,1.781-2.492c0.617-0.812,1.254-1.614,1.926-2.385c0.654-0.785,1.342-1.548,2.043-2.295
							c0.687-0.761,1.418-1.479,2.141-2.209c1.469-1.437,2.986-2.824,4.637-4.111C279.486,144.611,277.729,145.814,276.1,147.139z"
							/>
					</g>
				</g>
			</g>
			<g>
				<path fill="#FFFFFF" d="M133.018,268.7c0.128,0,0.244,0.052,0.348,0.155l0.912,0.996c-0.704,0.816-1.558,1.452-2.562,1.908
					s-2.214,0.685-3.63,0.685c-1.24,0-2.364-0.214-3.372-0.643c-1.008-0.428-1.868-1.027-2.58-1.8
					c-0.712-0.771-1.264-1.698-1.656-2.778s-0.588-2.268-0.588-3.563s0.21-2.484,0.63-3.564s1.01-2.008,1.77-2.784
					c0.76-0.775,1.67-1.378,2.73-1.806s2.23-0.642,3.51-0.642c1.264,0,2.354,0.196,3.27,0.588c0.916,0.392,1.729,0.924,2.442,1.596
					l-0.756,1.068c-0.056,0.08-0.12,0.146-0.192,0.197c-0.072,0.053-0.176,0.078-0.312,0.078c-0.104,0-0.214-0.037-0.33-0.113
					c-0.116-0.076-0.254-0.17-0.414-0.282c-0.16-0.112-0.348-0.232-0.564-0.36c-0.216-0.128-0.472-0.248-0.768-0.359
					c-0.296-0.112-0.64-0.206-1.032-0.282s-0.844-0.114-1.356-0.114c-0.92,0-1.762,0.158-2.526,0.474
					c-0.764,0.316-1.422,0.767-1.974,1.351c-0.552,0.584-0.982,1.296-1.29,2.136s-0.462,1.78-0.462,2.82
					c0,1.072,0.154,2.027,0.462,2.868c0.308,0.84,0.728,1.55,1.26,2.13c0.532,0.58,1.162,1.021,1.89,1.326
					c0.728,0.304,1.512,0.456,2.352,0.456c0.512,0,0.972-0.03,1.38-0.091c0.408-0.06,0.786-0.153,1.134-0.281
					s0.672-0.29,0.972-0.486c0.3-0.196,0.602-0.43,0.906-0.702C132.757,268.76,132.89,268.7,133.018,268.7z"/>
				<path fill="#FFFFFF" d="M139.894,265.076v7.176h-2.316v-17.196h4.86c1.088,0,2.028,0.11,2.82,0.33
					c0.792,0.221,1.446,0.538,1.962,0.954c0.516,0.416,0.898,0.918,1.146,1.506c0.248,0.588,0.372,1.246,0.372,1.975
					c0,0.607-0.096,1.176-0.288,1.704c-0.192,0.527-0.47,1.002-0.834,1.422c-0.364,0.42-0.808,0.777-1.332,1.073
					c-0.524,0.297-1.118,0.521-1.782,0.673c0.288,0.168,0.544,0.412,0.768,0.731l5.016,6.828h-2.064
					c-0.424,0-0.736-0.164-0.936-0.492l-4.464-6.144c-0.136-0.192-0.284-0.33-0.444-0.414s-0.4-0.126-0.72-0.126H139.894z
					 M139.894,263.384h2.436c0.68,0,1.278-0.082,1.794-0.246s0.948-0.396,1.296-0.695c0.348-0.301,0.61-0.658,0.786-1.074
					c0.176-0.416,0.264-0.876,0.264-1.38c0-1.024-0.338-1.796-1.014-2.316c-0.676-0.52-1.682-0.78-3.018-0.78h-2.544V263.384z"/>
				<path fill="#FFFFFF" d="M163.39,255.056v1.896h-8.256v5.712h6.684v1.824h-6.684v5.867h8.256v1.896h-10.596v-17.196H163.39z"/>
				<path fill="#FFFFFF" d="M180.885,272.252h-1.8c-0.208,0-0.376-0.052-0.504-0.156c-0.128-0.104-0.224-0.235-0.288-0.396
					l-1.608-4.152h-7.716l-1.608,4.152c-0.056,0.144-0.152,0.271-0.288,0.384c-0.136,0.112-0.304,0.168-0.504,0.168h-1.8
					l6.876-17.196h2.364L180.885,272.252z M169.617,265.868h6.42l-2.7-6.996c-0.176-0.432-0.348-0.972-0.516-1.62
					c-0.088,0.328-0.174,0.63-0.258,0.906c-0.084,0.275-0.166,0.518-0.246,0.726L169.617,265.868z"/>
				<path fill="#FFFFFF" d="M193.185,255.056v1.956h-5.556v15.24h-2.328v-15.24h-5.58v-1.956H193.185z"/>
				<path fill="#FFFFFF" d="M198.393,272.252h-2.328v-17.196h2.328V272.252z"/>
				<path fill="#FFFFFF" d="M201.009,255.056h1.86c0.208,0,0.376,0.053,0.504,0.156c0.128,0.104,0.224,0.236,0.288,0.396
					l4.86,12.132c0.111,0.271,0.214,0.567,0.306,0.888s0.182,0.652,0.27,0.996c0.072-0.344,0.15-0.676,0.234-0.996
					s0.182-0.616,0.294-0.888l4.836-12.132c0.056-0.137,0.152-0.263,0.288-0.379c0.136-0.115,0.304-0.174,0.504-0.174h1.872
					l-7.008,17.196h-2.101L201.009,255.056z"/>
				<path fill="#FFFFFF" d="M229.916,255.056v1.896h-8.256v5.712h6.685v1.824h-6.685v5.867h8.256v1.896H219.32v-17.196H229.916z"/>
				<path fill="#FFFFFF" d="M240.656,272.252h-2.328v-17.196h2.328V272.252z"/>
				<path fill="#FFFFFF" d="M246.926,255.134c0.1,0.053,0.214,0.158,0.342,0.318l9.96,12.96c-0.023-0.208-0.04-0.41-0.048-0.606
					c-0.008-0.195-0.012-0.386-0.012-0.569v-12.181h2.04v17.196h-1.176c-0.185,0-0.339-0.032-0.463-0.096
					c-0.124-0.064-0.245-0.172-0.365-0.324l-9.948-12.948c0.016,0.2,0.028,0.396,0.036,0.588c0.008,0.192,0.012,0.368,0.012,0.528
					v12.252h-2.04v-17.196h1.2C246.672,255.056,246.825,255.082,246.926,255.134z"/>
				<path fill="#FFFFFF" d="M275.528,268.7c0.128,0,0.244,0.052,0.348,0.155l0.912,0.996c-0.704,0.816-1.558,1.452-2.562,1.908
					s-2.214,0.685-3.63,0.685c-1.24,0-2.364-0.214-3.372-0.643c-1.008-0.428-1.868-1.027-2.58-1.8
					c-0.712-0.771-1.265-1.698-1.656-2.778s-0.588-2.268-0.588-3.563s0.21-2.484,0.63-3.564s1.01-2.008,1.771-2.784
					c0.76-0.775,1.669-1.378,2.729-1.806c1.06-0.428,2.229-0.642,3.51-0.642c1.265,0,2.354,0.196,3.271,0.588
					s1.729,0.924,2.441,1.596l-0.756,1.068c-0.056,0.08-0.12,0.146-0.191,0.197c-0.072,0.053-0.177,0.078-0.312,0.078
					c-0.104,0-0.214-0.037-0.33-0.113s-0.254-0.17-0.414-0.282s-0.348-0.232-0.563-0.36s-0.473-0.248-0.769-0.359
					c-0.296-0.112-0.64-0.206-1.031-0.282c-0.393-0.076-0.845-0.114-1.356-0.114c-0.92,0-1.762,0.158-2.526,0.474
					c-0.764,0.316-1.422,0.767-1.974,1.351s-0.982,1.296-1.29,2.136s-0.462,1.78-0.462,2.82c0,1.072,0.154,2.027,0.462,2.868
					c0.308,0.84,0.728,1.55,1.26,2.13s1.162,1.021,1.891,1.326c0.728,0.304,1.512,0.456,2.352,0.456c0.512,0,0.972-0.03,1.38-0.091
					c0.408-0.06,0.786-0.153,1.134-0.281c0.349-0.128,0.673-0.29,0.973-0.486s0.602-0.43,0.905-0.702
					C275.269,268.76,275.4,268.7,275.528,268.7z"/>
				<path fill="#FFFFFF" d="M278.815,270.932c0-0.208,0.038-0.403,0.114-0.588c0.076-0.184,0.18-0.344,0.312-0.479
					c0.132-0.137,0.289-0.244,0.474-0.324c0.184-0.08,0.38-0.12,0.588-0.12s0.404,0.04,0.588,0.12
					c0.185,0.08,0.344,0.188,0.48,0.324c0.136,0.136,0.241,0.296,0.317,0.479c0.076,0.185,0.114,0.38,0.114,0.588
					c0,0.217-0.038,0.414-0.114,0.595c-0.076,0.18-0.182,0.338-0.317,0.474c-0.137,0.136-0.296,0.242-0.48,0.318
					c-0.184,0.075-0.38,0.113-0.588,0.113s-0.404-0.038-0.588-0.113c-0.185-0.076-0.342-0.183-0.474-0.318
					c-0.133-0.136-0.236-0.294-0.312-0.474C278.854,271.346,278.815,271.148,278.815,270.932z"/>
			</g>
		</g>
	</g>
</g>
</svg>
