<?xml version="1.0" encoding="utf-8"?>
<!-- Generator: Adobe Illustrator 16.0.0, SVG Export Plug-In . SVG Version: 6.00 Build 0)  -->
<!DOCTYPE svg PUBLIC "-//W3C//DTD SVG 1.1//EN" "http://www.w3.org/Graphics/SVG/1.1/DTD/svg11.dtd">
<svg version="1.1" xmlns="http://www.w3.org/2000/svg" xmlns:xlink="http://www.w3.org/1999/xlink" x="0px" y="0px" width="150px"
	 height="150px" viewBox="0 0 150 150" enable-background="new 0 0 150 150" xml:space="preserve">
<symbol  id="Music" viewBox="-30.953 -30.311 61.905 60.62">
	<path d="M30.874-15.991h0.057v46.146l0.021,0.154l-0.021-0.003v0.003l-0.048-0.009l-44.898-6.012h-0.003v-36.461
		c-1.777,0.568-3.777,0.798-5.862,0.595c-6.597-0.641-11.538-5.337-11.038-10.489c0.501-5.152,6.253-8.812,12.849-8.172
		c6.598,0.642,11.539,5.337,11.038,10.49c-0.009,0.087-0.03,0.171-0.042,0.258h0.057v31.628l30.947,4.521V-8.671
		c-1.777,0.568-3.776,0.798-5.862,0.595c-6.598-0.642-11.54-5.338-11.04-10.49c0.501-5.152,6.253-8.812,12.849-8.172
		c6.598,0.642,11.539,5.337,11.038,10.49C30.907-16.161,30.886-16.078,30.874-15.991z"/>
</symbol>
<g id="Layer_1">
	
		<use xlink:href="#Music"  width="61.905" height="60.62" x="-30.953" y="-30.311" transform="matrix(1.9342 0 0 -1.9342 75.0005 75)" display="none" overflow="visible"/>
</g>
<g id="Layer_2">
	<g>
		<path fill="#1D1D1B" d="M50.21,41.195l-4.508-4.508c-1.232-1.232-3.262-1.232-4.507,0c-1.233,1.245-1.233,3.275,0,4.508
			l4.507,4.507c1.245,1.245,3.275,1.245,4.508,0C51.455,44.47,51.455,42.44,50.21,41.195z"/>
		<path fill="#1D1D1B" d="M33.575,68.625H27.2c-1.75,0-3.188,1.432-3.188,3.188S25.451,75,27.2,75h6.375
			c1.755,0,3.188-1.432,3.188-3.188S35.331,68.625,33.575,68.625z"/>
		<path fill="#1D1D1B" d="M122.8,74.987h-6.375c-1.749,0-3.188,1.433-3.188,3.188c0,1.756,1.438,3.188,3.188,3.188h6.375
			c1.756,0,3.188-1.432,3.188-3.188C125.987,76.42,124.556,74.987,122.8,74.987z"/>
		<path fill="#1D1D1B" d="M113.3,41.195c-1.232-1.233-3.263-1.233-4.507,0l-4.508,4.507c-1.232,1.245-1.232,3.275,0,4.508
			c1.245,1.245,3.274,1.245,4.508,0l4.507-4.508C114.545,44.47,114.545,42.44,113.3,41.195z"/>
		<path fill="#1D1D1B" d="M78.188,36.763c0.871,0,1.668-0.361,2.254-0.946c0.572-0.573,0.934-1.37,0.934-2.254v-6.375
			c0-1.756-1.432-3.188-3.188-3.188c-1.313,0-2.453,0.81-2.932,1.955L75,27.2v6.375C75,35.331,76.432,36.763,78.188,36.763z"/>
		<path fill="#1D1D1B" d="M74.987,49.5c-14.082,0-25.5,11.418-25.5,25.5c0,9.413,5.167,17.544,12.75,21.964v9.911h25.5v-9.911
			c7.596-4.42,12.75-12.551,12.75-21.964C100.487,60.918,89.07,49.5,74.987,49.5z M84.531,91.461l-3.169,1.842v3.661v3.536h-12.75
			v-3.536v-3.661l-3.162-1.842c-6.002-3.499-9.588-9.65-9.588-16.461c0-10.546,8.579-19.125,19.125-19.125S94.112,64.454,94.112,75
			C94.112,81.811,90.533,87.962,84.531,91.461z"/>
		<path fill="#1D1D1B" d="M62.237,119.625h6.562l-0.187,0.797c0,3.075,2.876,5.578,6.375,5.578c3.512,0,6.375-2.503,6.375-5.578
			l-0.187-0.797h6.562v-6.375h-25.5V119.625z"/>
	</g>
</g>
</svg>
